# xmcd
#
# Track frame offsets: 
#        150
#        21588
#        42766
#        58726
#        87343
#        103061
#        117805
#        141352
#        172519
#        186598
#
# Disc length: 2793 seconds
#
# Revision: 0
# Processed by: cddbd v1.5.2PL0 Copyright (c) Steve Scherf et al.
# Submitted via: ExactAudioCopy v0.95a5
#
DISCID=880ae70a
DTITLE=Frankie Chavez - Double or nothing
DYEAR=2017
DGENRE=Blues
TTITLE0=My religion
TTITLE1=Save
TTITLE2=Whatever Happened To Our Love
TTITLE3=Time For a Change
TTITLE4=Strong Enough To Pray
TTITLE5=Getaway
TTITLE6=Move On
TTITLE7=Sliding Donnie
TTITLE8=Double Or Nothing
TTITLE9=By The Banks Of This Old River
EXTD=
EXTT0=
EXTT1=
EXTT2=
EXTT3=
EXTT4=
EXTT5=
EXTT6=
EXTT7=
EXTT8=
EXTT9=
PLAYORDER=
